<svg id="ticks1" xmlns="http://www.w3.org/2000/svg" viewBox="0 0 200 200" width="100%" height="100%"><defs><clipPath id="dialPath"><circle cx="100" cy="100" r="100"></circle></clipPath></defs><circle cx="100" cy="100" r="16" fill="none" stroke="#fff" stroke-width="5"></circle><line x1="102.45" y1="1" x2="102.45" y2="28" stroke="#fff" stroke-width="2.5" stroke-linecap="butt" clip-path="url(#dialPath)" transform="rotate(30, 100, 100)"></line><line x1="97.55" y1="1" x2="97.55" y2="28" stroke="#fff" stroke-width="2.5" stroke-linecap="butt" clip-path="url(#dialPath)" transform="rotate(30, 100, 100)"></line><line x1="102.7" y1="1" x2="102.7" y2="28" stroke="#fff" stroke-width="3" stroke-linecap="butt" clip-path="url(#dialPath)" transform="rotate(60, 100, 100)"></line><line x1="97.3" y1="1" x2="97.3" y2="28" stroke="#fff" stroke-width="3" stroke-linecap="butt" clip-path="url(#dialPath)" transform="rotate(60, 100, 100)"></line><line x1="102.95" y1="1" x2="102.95" y2="28" stroke="#fff" stroke-width="3.5" stroke-linecap="butt" clip-path="url(#dialPath)" transform="rotate(90, 100, 100)"></line><line x1="97.05" y1="1" x2="97.05" y2="28" stroke="#fff" stroke-width="3.5" stroke-linecap="butt" clip-path="url(#dialPath)" transform="rotate(90, 100, 100)"></line><line x1="103.2" y1="1" x2="103.2" y2="28" stroke="#fff" stroke-width="4" stroke-linecap="butt" clip-path="url(#dialPath)" transform="rotate(120, 100, 100)"></line><line x1="96.8" y1="1" x2="96.8" y2="28" stroke="#fff" stroke-width="4" stroke-linecap="butt" clip-path="url(#dialPath)" transform="rotate(120, 100, 100)"></line><line x1="103.45" y1="1" x2="103.45" y2="28" stroke="#fff" stroke-width="4.5" stroke-linecap="butt" clip-path="url(#dialPath)" transform="rotate(150, 100, 100)"></line><line x1="96.55" y1="1" x2="96.55" y2="28" stroke="#fff" stroke-width="4.5" stroke-linecap="butt" clip-path="url(#dialPath)" transform="rotate(150, 100, 100)"></line><line x1="103.7" y1="1" x2="103.7" y2="28" stroke="#fff" stroke-width="5" stroke-linecap="butt" clip-path="url(#dialPath)" transform="rotate(180, 100, 100)"></line><line x1="96.3" y1="1" x2="96.3" y2="28" stroke="#fff" stroke-width="5" stroke-linecap="butt" clip-path="url(#dialPath)" transform="rotate(180, 100, 100)"></line><line x1="103.95" y1="1" x2="103.95" y2="28" stroke="#fff" stroke-width="5.5" stroke-linecap="butt" clip-path="url(#dialPath)" transform="rotate(210, 100, 100)"></line><line x1="96.05" y1="1" x2="96.05" y2="28" stroke="#fff" stroke-width="5.5" stroke-linecap="butt" clip-path="url(#dialPath)" transform="rotate(210, 100, 100)"></line><line x1="104.2" y1="1" x2="104.2" y2="28" stroke="#fff" stroke-width="6" stroke-linecap="butt" clip-path="url(#dialPath)" transform="rotate(240, 100, 100)"></line><line x1="95.8" y1="1" x2="95.8" y2="28" stroke="#fff" stroke-width="6" stroke-linecap="butt" clip-path="url(#dialPath)" transform="rotate(240, 100, 100)"></line><line x1="104.45" y1="1" x2="104.45" y2="28" stroke="#fff" stroke-width="6.5" stroke-linecap="butt" clip-path="url(#dialPath)" transform="rotate(270, 100, 100)"></line><line x1="95.55" y1="1" x2="95.55" y2="28" stroke="#fff" stroke-width="6.5" stroke-linecap="butt" clip-path="url(#dialPath)" transform="rotate(270, 100, 100)"></line><line x1="104.7" y1="1" x2="104.7" y2="28" stroke="#fff" stroke-width="7" stroke-linecap="butt" clip-path="url(#dialPath)" transform="rotate(300, 100, 100)"></line><line x1="95.3" y1="1" x2="95.3" y2="28" stroke="#fff" stroke-width="7" stroke-linecap="butt" clip-path="url(#dialPath)" transform="rotate(300, 100, 100)"></line><line x1="104.95" y1="1" x2="104.95" y2="28" stroke="#fff" stroke-width="7.5" stroke-linecap="butt" clip-path="url(#dialPath)" transform="rotate(330, 100, 100)"></line><line x1="95.05" y1="1" x2="95.05" y2="28" stroke="#fff" stroke-width="7.5" stroke-linecap="butt" clip-path="url(#dialPath)" transform="rotate(330, 100, 100)"></line><line x1="105.2" y1="1" x2="105.2" y2="28" stroke="#fff" stroke-width="8" stroke-linecap="butt" clip-path="url(#dialPath)" transform="rotate(360, 100, 100)"></line><line x1="94.8" y1="1" x2="94.8" y2="28" stroke="#fff" stroke-width="8" stroke-linecap="butt" clip-path="url(#dialPath)" transform="rotate(360, 100, 100)"></line></svg>